<svg id="sensei-surprised" data-pose="surprised" xmlns="http://www.w3.org/2000/svg" viewBox="0 0 512 512" width="512" height="512" data-om-id="jsx:/https:/019df760-e5b6-7cb0-a4c8-6d615eaa4e5b.claudeusercontent.com/v1/design/projects/019df760-e5b6-7cb0-a4c8-6d615eaa4e5b/serve/mascot/sensei.jsx:28681:821:5"><g stroke="#1A1A1A" stroke-width="3.5" stroke-linecap="round" fill="none" opacity="0.85" data-om-id="jsx:/https:/019df760-e5b6-7cb0-a4c8-6d615eaa4e5b.claudeusercontent.com/v1/design/projects/019df760-e5b6-7cb0-a4c8-6d615eaa4e5b/serve/mascot/sensei.jsx:33296:972:5"><path d="M 152 152 l -10 -16" data-om-id="jsx:/https:/019df760-e5b6-7cb0-a4c8-6d615eaa4e5b.claudeusercontent.com/v1/design/projects/019df760-e5b6-7cb0-a4c8-6d615eaa4e5b/serve/mascot/sensei.jsx:33386:973:7"/><path d="M 138 178 l -16 -4" data-om-id="jsx:/https:/019df760-e5b6-7cb0-a4c8-6d615eaa4e5b.claudeusercontent.com/v1/design/projects/019df760-e5b6-7cb0-a4c8-6d615eaa4e5b/serve/mascot/sensei.jsx:33425:974:7"/><path d="M 360 152 l 10 -16" data-om-id="jsx:/https:/019df760-e5b6-7cb0-a4c8-6d615eaa4e5b.claudeusercontent.com/v1/design/projects/019df760-e5b6-7cb0-a4c8-6d615eaa4e5b/serve/mascot/sensei.jsx:33463:975:7"/><path d="M 374 178 l 16 -4" data-om-id="jsx:/https:/019df760-e5b6-7cb0-a4c8-6d615eaa4e5b.claudeusercontent.com/v1/design/projects/019df760-e5b6-7cb0-a4c8-6d615eaa4e5b/serve/mascot/sensei.jsx:33501:976:7"/></g><g data-om-id="jsx:/https:/019df760-e5b6-7cb0-a4c8-6d615eaa4e5b.claudeusercontent.com/v1/design/projects/019df760-e5b6-7cb0-a4c8-6d615eaa4e5b/serve/mascot/sensei.jsx:27956:794:5"><g transform="translate(112 128) scale(0.7)" data-om-id="jsx:/https:/019df760-e5b6-7cb0-a4c8-6d615eaa4e5b.claudeusercontent.com/v1/design/projects/019df760-e5b6-7cb0-a4c8-6d615eaa4e5b/serve/mascot/sensei.jsx:27997:796:9"><path d="M 0 -10 l 3 7 l 7 3 l -7 3 l -3 7 l -3 -7 l -7 -3 l 7 -3 Z" fill="#E8B84B" stroke="#1A1A1A" stroke-width="1.5" data-om-id="jsx:/https:/019df760-e5b6-7cb0-a4c8-6d615eaa4e5b.claudeusercontent.com/v1/design/projects/019df760-e5b6-7cb0-a4c8-6d615eaa4e5b/serve/mascot/sensei.jsx:28080:797:11"/><circle r="1.5" fill="#FFFFFF" data-om-id="jsx:/https:/019df760-e5b6-7cb0-a4c8-6d615eaa4e5b.claudeusercontent.com/v1/design/projects/019df760-e5b6-7cb0-a4c8-6d615eaa4e5b/serve/mascot/sensei.jsx:28222:799:11"/></g><g transform="translate(400 128) scale(0.7)" data-om-id="jsx:/https:/019df760-e5b6-7cb0-a4c8-6d615eaa4e5b.claudeusercontent.com/v1/design/projects/019df760-e5b6-7cb0-a4c8-6d615eaa4e5b/serve/mascot/sensei.jsx:27997:796:9"><path d="M 0 -10 l 3 7 l 7 3 l -7 3 l -3 7 l -3 -7 l -7 -3 l 7 -3 Z" fill="#E8B84B" stroke="#1A1A1A" stroke-width="1.5" data-om-id="jsx:/https:/019df760-e5b6-7cb0-a4c8-6d615eaa4e5b.claudeusercontent.com/v1/design/projects/019df760-e5b6-7cb0-a4c8-6d615eaa4e5b/serve/mascot/sensei.jsx:28080:797:11"/><circle r="1.5" fill="#FFFFFF" data-om-id="jsx:/https:/019df760-e5b6-7cb0-a4c8-6d615eaa4e5b.claudeusercontent.com/v1/design/projects/019df760-e5b6-7cb0-a4c8-6d615eaa4e5b/serve/mascot/sensei.jsx:28222:799:11"/></g></g><g transform="rotate(0 256 130)" data-om-id="jsx:/https:/019df760-e5b6-7cb0-a4c8-6d615eaa4e5b.claudeusercontent.com/v1/design/projects/019df760-e5b6-7cb0-a4c8-6d615eaa4e5b/serve/mascot/sensei.jsx:1738:43:5"><path d="M 138 156 Q 256 92 374 156 L 374 168 Q 256 178 138 168 Z" fill="#D8B274" stroke="#1A1A1A" stroke-width="6" stroke-linejoin="round" data-om-id="jsx:/https:/019df760-e5b6-7cb0-a4c8-6d615eaa4e5b.claudeusercontent.com/v1/design/projects/019df760-e5b6-7cb0-a4c8-6d615eaa4e5b/serve/mascot/sensei.jsx:1786:44:7"/><path d="M 158 152 Q 220 116 256 110 L 256 118 Q 200 130 168 154 Z" fill="#E8C893" opacity="0.85" data-om-id="jsx:/https:/019df760-e5b6-7cb0-a4c8-6d615eaa4e5b.claudeusercontent.com/v1/design/projects/019df760-e5b6-7cb0-a4c8-6d615eaa4e5b/serve/mascot/sensei.jsx:2033:55:7"/><path d="M 256 110 Q 320 124 358 152 L 348 156 Q 300 132 256 118 Z" fill="#9C7A47" opacity="0.45" data-om-id="jsx:/https:/019df760-e5b6-7cb0-a4c8-6d615eaa4e5b.claudeusercontent.com/v1/design/projects/019df760-e5b6-7cb0-a4c8-6d615eaa4e5b/serve/mascot/sensei.jsx:2177:57:7"/><g stroke="#9C7A47" stroke-width="2.5" fill="none" stroke-linecap="round" opacity="0.75" data-om-id="jsx:/https:/019df760-e5b6-7cb0-a4c8-6d615eaa4e5b.claudeusercontent.com/v1/design/projects/019df760-e5b6-7cb0-a4c8-6d615eaa4e5b/serve/mascot/sensei.jsx:2318:59:7"><path d="M 256 102 Q 200 134 168 162" data-om-id="jsx:/https:/019df760-e5b6-7cb0-a4c8-6d615eaa4e5b.claudeusercontent.com/v1/design/projects/019df760-e5b6-7cb0-a4c8-6d615eaa4e5b/serve/mascot/sensei.jsx:2413:60:9"/><path d="M 256 102 Q 224 132 208 164" data-om-id="jsx:/https:/019df760-e5b6-7cb0-a4c8-6d615eaa4e5b.claudeusercontent.com/v1/design/projects/019df760-e5b6-7cb0-a4c8-6d615eaa4e5b/serve/mascot/sensei.jsx:2462:61:9"/><path d="M 256 102 Q 256 134 256 168" data-om-id="jsx:/https:/019df760-e5b6-7cb0-a4c8-6d615eaa4e5b.claudeusercontent.com/v1/design/projects/019df760-e5b6-7cb0-a4c8-6d615eaa4e5b/serve/mascot/sensei.jsx:2511:62:9"/><path d="M 256 102 Q 290 132 308 164" data-om-id="jsx:/https:/019df760-e5b6-7cb0-a4c8-6d615eaa4e5b.claudeusercontent.com/v1/design/projects/019df760-e5b6-7cb0-a4c8-6d615eaa4e5b/serve/mascot/sensei.jsx:2560:63:9"/><path d="M 256 102 Q 312 134 344 162" data-om-id="jsx:/https:/019df760-e5b6-7cb0-a4c8-6d615eaa4e5b.claudeusercontent.com/v1/design/projects/019df760-e5b6-7cb0-a4c8-6d615eaa4e5b/serve/mascot/sensei.jsx:2609:64:9"/></g><g stroke="#9C7A47" stroke-width="1.6" fill="none" opacity="0.5" data-om-id="jsx:/https:/019df760-e5b6-7cb0-a4c8-6d615eaa4e5b.claudeusercontent.com/v1/design/projects/019df760-e5b6-7cb0-a4c8-6d615eaa4e5b/serve/mascot/sensei.jsx:2704:67:7"><path d="M 168 130 Q 256 116 344 130" data-om-id="jsx:/https:/019df760-e5b6-7cb0-a4c8-6d615eaa4e5b.claudeusercontent.com/v1/design/projects/019df760-e5b6-7cb0-a4c8-6d615eaa4e5b/serve/mascot/sensei.jsx:2776:68:9"/><path d="M 152 148 Q 256 134 360 148" data-om-id="jsx:/https:/019df760-e5b6-7cb0-a4c8-6d615eaa4e5b.claudeusercontent.com/v1/design/projects/019df760-e5b6-7cb0-a4c8-6d615eaa4e5b/serve/mascot/sensei.jsx:2825:69:9"/></g></g><g data-om-id="jsx:/https:/019df760-e5b6-7cb0-a4c8-6d615eaa4e5b.claudeusercontent.com/v1/design/projects/019df760-e5b6-7cb0-a4c8-6d615eaa4e5b/serve/mascot/sensei.jsx:5005:134:5"><path d="M 158 224 q -16 -2 -16 16 q 0 16 16 18 q 6 0 8 -4 Z" fill="#F2D5AC" stroke="#1A1A1A" stroke-width="5" stroke-linejoin="round" data-om-id="jsx:/https:/019df760-e5b6-7cb0-a4c8-6d615eaa4e5b.claudeusercontent.com/v1/design/projects/019df760-e5b6-7cb0-a4c8-6d615eaa4e5b/serve/mascot/sensei.jsx:5068:136:7"/><path d="M 152 240 q 4 4 6 8" stroke="#3A3A3A" stroke-width="2" fill="none" data-om-id="jsx:/https:/019df760-e5b6-7cb0-a4c8-6d615eaa4e5b.claudeusercontent.com/v1/design/projects/019df760-e5b6-7cb0-a4c8-6d615eaa4e5b/serve/mascot/sensei.jsx:5282:146:7"/><path d="M 354 224 q 16 -2 16 16 q 0 16 -16 18 q -6 0 -8 -4 Z" fill="#F2D5AC" stroke="#1A1A1A" stroke-width="5" stroke-linejoin="round" data-om-id="jsx:/https:/019df760-e5b6-7cb0-a4c8-6d615eaa4e5b.claudeusercontent.com/v1/design/projects/019df760-e5b6-7cb0-a4c8-6d615eaa4e5b/serve/mascot/sensei.jsx:5367:147:7"/><path d="M 360 240 q -4 4 -6 8" stroke="#3A3A3A" stroke-width="2" fill="none" data-om-id="jsx:/https:/019df760-e5b6-7cb0-a4c8-6d615eaa4e5b.claudeusercontent.com/v1/design/projects/019df760-e5b6-7cb0-a4c8-6d615eaa4e5b/serve/mascot/sensei.jsx:5582:157:7"/><ellipse cx="256" cy="222" rx="92" ry="72" fill="#F2D5AC" stroke="#1A1A1A" stroke-width="6" data-om-id="jsx:/https:/019df760-e5b6-7cb0-a4c8-6d615eaa4e5b.claudeusercontent.com/v1/design/projects/019df760-e5b6-7cb0-a4c8-6d615eaa4e5b/serve/mascot/sensei.jsx:5694:160:7"/><path d="M 218 200 q 8 -2 16 -1" stroke="#3A3A3A" stroke-width="2" fill="none" opacity="0.6" data-om-id="jsx:/https:/019df760-e5b6-7cb0-a4c8-6d615eaa4e5b.claudeusercontent.com/v1/design/projects/019df760-e5b6-7cb0-a4c8-6d615eaa4e5b/serve/mascot/sensei.jsx:5820:163:7"/><path d="M 280 200 q 8 -2 16 -1" stroke="#3A3A3A" stroke-width="2" fill="none" opacity="0.6" data-om-id="jsx:/https:/019df760-e5b6-7cb0-a4c8-6d615eaa4e5b.claudeusercontent.com/v1/design/projects/019df760-e5b6-7cb0-a4c8-6d615eaa4e5b/serve/mascot/sensei.jsx:5922:164:7"/><ellipse cx="194" cy="248" rx="16" ry="8" fill="#E89A9A" opacity="0.6" data-om-id="jsx:/https:/019df760-e5b6-7cb0-a4c8-6d615eaa4e5b.claudeusercontent.com/v1/design/projects/019df760-e5b6-7cb0-a4c8-6d615eaa4e5b/serve/mascot/sensei.jsx:6051:167:7"/><ellipse cx="318" cy="248" rx="16" ry="8" fill="#E89A9A" opacity="0.6" data-om-id="jsx:/https:/019df760-e5b6-7cb0-a4c8-6d615eaa4e5b.claudeusercontent.com/v1/design/projects/019df760-e5b6-7cb0-a4c8-6d615eaa4e5b/serve/mascot/sensei.jsx:6129:168:7"/><path d="M 244 230 q 12 -10 24 0 q 6 8 0 16 q -12 8 -24 0 q -6 -8 0 -16 Z" fill="#D9B07F" stroke="#1A1A1A" stroke-width="3.5" stroke-linejoin="round" data-om-id="jsx:/https:/019df760-e5b6-7cb0-a4c8-6d615eaa4e5b.claudeusercontent.com/v1/design/projects/019df760-e5b6-7cb0-a4c8-6d615eaa4e5b/serve/mascot/sensei.jsx:6227:171:7"/><ellipse cx="252" cy="230" rx="3" ry="2" fill="#F2D5AC" opacity="0.95" data-om-id="jsx:/https:/019df760-e5b6-7cb0-a4c8-6d615eaa4e5b.claudeusercontent.com/v1/design/projects/019df760-e5b6-7cb0-a4c8-6d615eaa4e5b/serve/mascot/sensei.jsx:6446:179:7"/><circle cx="250" cy="242" r="1.6" fill="#3A3A3A" data-om-id="jsx:/https:/019df760-e5b6-7cb0-a4c8-6d615eaa4e5b.claudeusercontent.com/v1/design/projects/019df760-e5b6-7cb0-a4c8-6d615eaa4e5b/serve/mascot/sensei.jsx:6523:180:7"/><circle cx="262" cy="242" r="1.6" fill="#3A3A3A" data-om-id="jsx:/https:/019df760-e5b6-7cb0-a4c8-6d615eaa4e5b.claudeusercontent.com/v1/design/projects/019df760-e5b6-7cb0-a4c8-6d615eaa4e5b/serve/mascot/sensei.jsx:6582:181:7"/><g data-om-id="jsx:/https:/019df760-e5b6-7cb0-a4c8-6d615eaa4e5b.claudeusercontent.com/v1/design/projects/019df760-e5b6-7cb0-a4c8-6d615eaa4e5b/serve/mascot/sensei.jsx:7754:206:5"><path d="M 168 184 q 36 -22 70 -4 q 4 14 -14 14 q -30 0 -52 -2 q -4 -4 -4 -8 Z" fill="#FBF8F1" stroke="#1A1A1A" stroke-width="4" stroke-linejoin="round" data-om-id="jsx:/https:/019df760-e5b6-7cb0-a4c8-6d615eaa4e5b.claudeusercontent.com/v1/design/projects/019df760-e5b6-7cb0-a4c8-6d615eaa4e5b/serve/mascot/sensei.jsx:7764:207:7"/><path d="M 272 182 q 34 -18 66 4 q 4 8 -4 12 q -28 2 -50 2 q -18 0 -12 -18 Z" fill="#FBF8F1" stroke="#1A1A1A" stroke-width="4" stroke-linejoin="round" data-om-id="jsx:/https:/019df760-e5b6-7cb0-a4c8-6d615eaa4e5b.claudeusercontent.com/v1/design/projects/019df760-e5b6-7cb0-a4c8-6d615eaa4e5b/serve/mascot/sensei.jsx:7860:208:7"/><g stroke="#D8D2C2" stroke-width="1.6" fill="none" stroke-linecap="round" opacity="0.95" data-om-id="jsx:/https:/019df760-e5b6-7cb0-a4c8-6d615eaa4e5b.claudeusercontent.com/v1/design/projects/019df760-e5b6-7cb0-a4c8-6d615eaa4e5b/serve/mascot/sensei.jsx:7956:209:7"><path d="M 184 200 q 14 -6 30 -4" data-om-id="jsx:/https:/019df760-e5b6-7cb0-a4c8-6d615eaa4e5b.claudeusercontent.com/v1/design/projects/019df760-e5b6-7cb0-a4c8-6d615eaa4e5b/serve/mascot/sensei.jsx:8056:210:9"/><path d="M 290 200 q 16 -6 30 -2" data-om-id="jsx:/https:/019df760-e5b6-7cb0-a4c8-6d615eaa4e5b.claudeusercontent.com/v1/design/projects/019df760-e5b6-7cb0-a4c8-6d615eaa4e5b/serve/mascot/sensei.jsx:8101:211:9"/></g></g><g data-om-id="jsx:/https:/019df760-e5b6-7cb0-a4c8-6d615eaa4e5b.claudeusercontent.com/v1/design/projects/019df760-e5b6-7cb0-a4c8-6d615eaa4e5b/serve/mascot/sensei.jsx:9016:235:7"><ellipse cx="222" cy="230" rx="14" ry="14" fill="#FFFFFF" stroke="#1A1A1A" stroke-width="4.5" data-om-id="jsx:/https:/019df760-e5b6-7cb0-a4c8-6d615eaa4e5b.claudeusercontent.com/v1/design/projects/019df760-e5b6-7cb0-a4c8-6d615eaa4e5b/serve/mascot/sensei.jsx:9028:236:9"/><circle cx="222" cy="231" r="6" fill="#3A3A3A" data-om-id="jsx:/https:/019df760-e5b6-7cb0-a4c8-6d615eaa4e5b.claudeusercontent.com/v1/design/projects/019df760-e5b6-7cb0-a4c8-6d615eaa4e5b/serve/mascot/sensei.jsx:9124:237:9"/><circle cx="225" cy="227" r="2.4" fill="#FFFFFF" data-om-id="jsx:/https:/019df760-e5b6-7cb0-a4c8-6d615eaa4e5b.claudeusercontent.com/v1/design/projects/019df760-e5b6-7cb0-a4c8-6d615eaa4e5b/serve/mascot/sensei.jsx:9183:238:9"/><circle cx="218" cy="234" r="1.4" fill="#FFFFFF" opacity="0.85" data-om-id="jsx:/https:/019df760-e5b6-7cb0-a4c8-6d615eaa4e5b.claudeusercontent.com/v1/design/projects/019df760-e5b6-7cb0-a4c8-6d615eaa4e5b/serve/mascot/sensei.jsx:9247:239:9"/></g><g data-om-id="jsx:/https:/019df760-e5b6-7cb0-a4c8-6d615eaa4e5b.claudeusercontent.com/v1/design/projects/019df760-e5b6-7cb0-a4c8-6d615eaa4e5b/serve/mascot/sensei.jsx:9016:235:7"><ellipse cx="290" cy="230" rx="14" ry="14" fill="#FFFFFF" stroke="#1A1A1A" stroke-width="4.5" data-om-id="jsx:/https:/019df760-e5b6-7cb0-a4c8-6d615eaa4e5b.claudeusercontent.com/v1/design/projects/019df760-e5b6-7cb0-a4c8-6d615eaa4e5b/serve/mascot/sensei.jsx:9028:236:9"/><circle cx="290" cy="231" r="6" fill="#3A3A3A" data-om-id="jsx:/https:/019df760-e5b6-7cb0-a4c8-6d615eaa4e5b.claudeusercontent.com/v1/design/projects/019df760-e5b6-7cb0-a4c8-6d615eaa4e5b/serve/mascot/sensei.jsx:9124:237:9"/><circle cx="293" cy="227" r="2.4" fill="#FFFFFF" data-om-id="jsx:/https:/019df760-e5b6-7cb0-a4c8-6d615eaa4e5b.claudeusercontent.com/v1/design/projects/019df760-e5b6-7cb0-a4c8-6d615eaa4e5b/serve/mascot/sensei.jsx:9183:238:9"/><circle cx="286" cy="234" r="1.4" fill="#FFFFFF" opacity="0.85" data-om-id="jsx:/https:/019df760-e5b6-7cb0-a4c8-6d615eaa4e5b.claudeusercontent.com/v1/design/projects/019df760-e5b6-7cb0-a4c8-6d615eaa4e5b/serve/mascot/sensei.jsx:9247:239:9"/></g><g data-om-id="jsx:/https:/019df760-e5b6-7cb0-a4c8-6d615eaa4e5b.claudeusercontent.com/v1/design/projects/019df760-e5b6-7cb0-a4c8-6d615eaa4e5b/serve/mascot/sensei.jsx:10876:289:5"><path d="M 230 256 q -14 6 -22 16 q -14 -2 -10 -14 q 8 -10 24 -10 q 18 -2 34 0 q 16 -2 34 0 q 16 0 24 10 q 4 12 -10 14 q -8 -10 -22 -16 q -16 -2 -26 -2 q -10 0 -26 2 Z" fill="#FBF8F1" stroke="#1A1A1A" stroke-width="4.5" stroke-linejoin="round" data-om-id="jsx:/https:/019df760-e5b6-7cb0-a4c8-6d615eaa4e5b.claudeusercontent.com/v1/design/projects/019df760-e5b6-7cb0-a4c8-6d615eaa4e5b/serve/mascot/sensei.jsx:10886:290:7"/></g><g data-om-id="jsx:/https:/019df760-e5b6-7cb0-a4c8-6d615eaa4e5b.claudeusercontent.com/v1/design/projects/019df760-e5b6-7cb0-a4c8-6d615eaa4e5b/serve/mascot/sensei.jsx:12251:328:9"><ellipse cx="256" cy="274" rx="5" ry="6.5" fill="#1A1A1A" data-om-id="jsx:/https:/019df760-e5b6-7cb0-a4c8-6d615eaa4e5b.claudeusercontent.com/v1/design/projects/019df760-e5b6-7cb0-a4c8-6d615eaa4e5b/serve/mascot/sensei.jsx:12265:329:11"/><ellipse cx="254" cy="272" rx="1.4" ry="2" fill="#E89A9A" opacity="0.6" data-om-id="jsx:/https:/019df760-e5b6-7cb0-a4c8-6d615eaa4e5b.claudeusercontent.com/v1/design/projects/019df760-e5b6-7cb0-a4c8-6d615eaa4e5b/serve/mascot/sensei.jsx:12332:330:11"/></g></g><g data-om-id="jsx:/https:/019df760-e5b6-7cb0-a4c8-6d615eaa4e5b.claudeusercontent.com/v1/design/projects/019df760-e5b6-7cb0-a4c8-6d615eaa4e5b/serve/mascot/sensei.jsx:13593:362:5"><path d="M 218 276 C 200 304, 192 344, 200 384 C 206 418, 218 440, 230 456 C 240 466, 252 468, 256 464 C 260 468, 272 466, 282 456 C 296 440, 306 418, 312 384 C 320 344, 314 304, 296 276 C 282 290, 268 294, 256 294 C 244 294, 232 290, 218 276 Z" fill="#FBF8F1" stroke="#1A1A1A" stroke-width="5.5" stroke-linejoin="round" data-om-id="jsx:/https:/019df760-e5b6-7cb0-a4c8-6d615eaa4e5b.claudeusercontent.com/v1/design/projects/019df760-e5b6-7cb0-a4c8-6d615eaa4e5b/serve/mascot/sensei.jsx:13603:363:7"/><g stroke="#D8D2C2" stroke-width="2" fill="none" stroke-linecap="round" opacity="0.95" data-om-id="jsx:/https:/019df760-e5b6-7cb0-a4c8-6d615eaa4e5b.claudeusercontent.com/v1/design/projects/019df760-e5b6-7cb0-a4c8-6d615eaa4e5b/serve/mascot/sensei.jsx:13701:364:7"><path d="M 232 316 q 14 36 4 80" data-om-id="jsx:/https:/019df760-e5b6-7cb0-a4c8-6d615eaa4e5b.claudeusercontent.com/v1/design/projects/019df760-e5b6-7cb0-a4c8-6d615eaa4e5b/serve/mascot/sensei.jsx:13799:365:9"/><path d="M 256 312 q 0 50 0 92" data-om-id="jsx:/https:/019df760-e5b6-7cb0-a4c8-6d615eaa4e5b.claudeusercontent.com/v1/design/projects/019df760-e5b6-7cb0-a4c8-6d615eaa4e5b/serve/mascot/sensei.jsx:13843:366:9"/><path d="M 280 316 q -10 38 0 80" data-om-id="jsx:/https:/019df760-e5b6-7cb0-a4c8-6d615eaa4e5b.claudeusercontent.com/v1/design/projects/019df760-e5b6-7cb0-a4c8-6d615eaa4e5b/serve/mascot/sensei.jsx:13886:367:9"/></g></g><g data-om-id="jsx:/https:/019df760-e5b6-7cb0-a4c8-6d615eaa4e5b.claudeusercontent.com/v1/design/projects/019df760-e5b6-7cb0-a4c8-6d615eaa4e5b/serve/mascot/sensei.jsx:14474:382:5"><g data-om-id="jsx:/https:/019df760-e5b6-7cb0-a4c8-6d615eaa4e5b.claudeusercontent.com/v1/design/projects/019df760-e5b6-7cb0-a4c8-6d615eaa4e5b/serve/mascot/sensei.jsx:17449:477:5"><path d="M 156 412 Q 132 460, 116 484 L 396 484 Q 380 460, 356 412 Z" fill="#3A4250" stroke="#1A1A1A" stroke-width="6" stroke-linejoin="round" data-om-id="jsx:/https:/019df760-e5b6-7cb0-a4c8-6d615eaa4e5b.claudeusercontent.com/v1/design/projects/019df760-e5b6-7cb0-a4c8-6d615eaa4e5b/serve/mascot/sensei.jsx:17529:479:7"/><path d="M 256 416 L 256 484" stroke="#262B36" stroke-width="3.5" opacity="0.85" data-om-id="jsx:/https:/019df760-e5b6-7cb0-a4c8-6d615eaa4e5b.claudeusercontent.com/v1/design/projects/019df760-e5b6-7cb0-a4c8-6d615eaa4e5b/serve/mascot/sensei.jsx:17811:490:7"/><g stroke="#262B36" stroke-width="2.5" fill="none" opacity="0.7" data-om-id="jsx:/https:/019df760-e5b6-7cb0-a4c8-6d615eaa4e5b.claudeusercontent.com/v1/design/projects/019df760-e5b6-7cb0-a4c8-6d615eaa4e5b/serve/mascot/sensei.jsx:17947:492:7"><path d="M 196 416 L 184 484" data-om-id="jsx:/https:/019df760-e5b6-7cb0-a4c8-6d615eaa4e5b.claudeusercontent.com/v1/design/projects/019df760-e5b6-7cb0-a4c8-6d615eaa4e5b/serve/mascot/sensei.jsx:18022:493:9"/><path d="M 222 416 L 216 484" data-om-id="jsx:/https:/019df760-e5b6-7cb0-a4c8-6d615eaa4e5b.claudeusercontent.com/v1/design/projects/019df760-e5b6-7cb0-a4c8-6d615eaa4e5b/serve/mascot/sensei.jsx:18063:494:9"/><path d="M 290 416 L 296 484" data-om-id="jsx:/https:/019df760-e5b6-7cb0-a4c8-6d615eaa4e5b.claudeusercontent.com/v1/design/projects/019df760-e5b6-7cb0-a4c8-6d615eaa4e5b/serve/mascot/sensei.jsx:18104:495:9"/><path d="M 316 416 L 328 484" data-om-id="jsx:/https:/019df760-e5b6-7cb0-a4c8-6d615eaa4e5b.claudeusercontent.com/v1/design/projects/019df760-e5b6-7cb0-a4c8-6d615eaa4e5b/serve/mascot/sensei.jsx:18145:496:9"/></g><path d="M 168 416 Q 144 460, 132 484 L 148 484 Q 158 460, 178 416 Z" fill="#5E6770" opacity="0.25" data-om-id="jsx:/https:/019df760-e5b6-7cb0-a4c8-6d615eaa4e5b.claudeusercontent.com/v1/design/projects/019df760-e5b6-7cb0-a4c8-6d615eaa4e5b/serve/mascot/sensei.jsx:18224:499:7"/><path d="M 116 480 Q 256 496 396 480 L 396 484 L 116 484 Z" fill="#262B36" opacity="0.5" data-om-id="jsx:/https:/019df760-e5b6-7cb0-a4c8-6d615eaa4e5b.claudeusercontent.com/v1/design/projects/019df760-e5b6-7cb0-a4c8-6d615eaa4e5b/serve/mascot/sensei.jsx:18373:502:7"/></g><path d="M 178 296 Q 168 340, 162 408 L 352 408 Q 348 340, 334 296 Q 312 312, 256 312 Q 200 312, 178 296 Z" fill="#4D5662" stroke="#1A1A1A" stroke-width="6" stroke-linejoin="round" data-om-id="jsx:/https:/019df760-e5b6-7cb0-a4c8-6d615eaa4e5b.claudeusercontent.com/v1/design/projects/019df760-e5b6-7cb0-a4c8-6d615eaa4e5b/serve/mascot/sensei.jsx:14621:387:7"/><path d="M 188 308 Q 178 360, 174 408 L 184 408 Q 188 360, 196 312 Z" fill="#5E6770" opacity="0.55" data-om-id="jsx:/https:/019df760-e5b6-7cb0-a4c8-6d615eaa4e5b.claudeusercontent.com/v1/design/projects/019df760-e5b6-7cb0-a4c8-6d615eaa4e5b/serve/mascot/sensei.jsx:14936:400:7"/><path d="M 324 308 Q 334 360, 338 408 L 328 408 Q 324 360, 316 312 Z" fill="#2F353F" opacity="0.55" data-om-id="jsx:/https:/019df760-e5b6-7cb0-a4c8-6d615eaa4e5b.claudeusercontent.com/v1/design/projects/019df760-e5b6-7cb0-a4c8-6d615eaa4e5b/serve/mascot/sensei.jsx:15090:403:7"/><path d="M 220 296 L 256 340 L 292 296 Q 274 312, 256 312 Q 238 312, 220 296 Z" fill="#FBF8F1" stroke="#1A1A1A" stroke-width="4" stroke-linejoin="round" data-om-id="jsx:/https:/019df760-e5b6-7cb0-a4c8-6d615eaa4e5b.claudeusercontent.com/v1/design/projects/019df760-e5b6-7cb0-a4c8-6d615eaa4e5b/serve/mascot/sensei.jsx:15273:407:7"/><path d="M 192 308 Q 200 304, 224 304 L 256 348 L 252 360 Q 220 322, 200 320 Q 192 316, 192 308 Z" fill="#2F353F" stroke="#1A1A1A" stroke-width="4.5" stroke-linejoin="round" data-om-id="jsx:/https:/019df760-e5b6-7cb0-a4c8-6d615eaa4e5b.claudeusercontent.com/v1/design/projects/019df760-e5b6-7cb0-a4c8-6d615eaa4e5b/serve/mascot/sensei.jsx:15647:421:7"/><path d="M 320 308 Q 312 304, 288 304 L 256 348 L 260 360 Q 292 322, 312 320 Q 320 316, 320 308 Z" fill="#4D5662" stroke="#1A1A1A" stroke-width="4.5" stroke-linejoin="round" data-om-id="jsx:/https:/019df760-e5b6-7cb0-a4c8-6d615eaa4e5b.claudeusercontent.com/v1/design/projects/019df760-e5b6-7cb0-a4c8-6d615eaa4e5b/serve/mascot/sensei.jsx:15991:434:7"/><path d="M 224 308 L 256 348" stroke="#3A3A3A" stroke-width="1.5" fill="none" opacity="0.5" data-om-id="jsx:/https:/019df760-e5b6-7cb0-a4c8-6d615eaa4e5b.claudeusercontent.com/v1/design/projects/019df760-e5b6-7cb0-a4c8-6d615eaa4e5b/serve/mascot/sensei.jsx:16302:447:7"/><path d="M 288 308 L 256 348" stroke="#FFFFFF" stroke-width="1.5" fill="none" opacity="0.4" data-om-id="jsx:/https:/019df760-e5b6-7cb0-a4c8-6d615eaa4e5b.claudeusercontent.com/v1/design/projects/019df760-e5b6-7cb0-a4c8-6d615eaa4e5b/serve/mascot/sensei.jsx:16403:448:7"/><path d="M 158 392 Q 256 408 354 392 L 358 420 Q 256 436 154 420 Z" fill="#BC002D" stroke="#1A1A1A" stroke-width="5" stroke-linejoin="round" data-om-id="jsx:/https:/019df760-e5b6-7cb0-a4c8-6d615eaa4e5b.claudeusercontent.com/v1/design/projects/019df760-e5b6-7cb0-a4c8-6d615eaa4e5b/serve/mascot/sensei.jsx:16542:451:7"/><path d="M 160 410 Q 256 426 356 410 L 358 420 Q 256 436 154 420 Z" fill="#8E0021" opacity="0.55" data-om-id="jsx:/https:/019df760-e5b6-7cb0-a4c8-6d615eaa4e5b.claudeusercontent.com/v1/design/projects/019df760-e5b6-7cb0-a4c8-6d615eaa4e5b/serve/mascot/sensei.jsx:16728:458:7"/><path d="M 156 404 Q 256 416 358 404" stroke="#FBF8F1" stroke-width="3" fill="none" opacity="0.95" data-om-id="jsx:/https:/019df760-e5b6-7cb0-a4c8-6d615eaa4e5b.claudeusercontent.com/v1/design/projects/019df760-e5b6-7cb0-a4c8-6d615eaa4e5b/serve/mascot/sensei.jsx:16909:460:7"/><path d="M 240 402 q 16 -4 32 0 l 4 22 q -22 -4 -40 0 Z" fill="#8E0021" stroke="#1A1A1A" stroke-width="3.5" stroke-linejoin="round" data-om-id="jsx:/https:/019df760-e5b6-7cb0-a4c8-6d615eaa4e5b.claudeusercontent.com/v1/design/projects/019df760-e5b6-7cb0-a4c8-6d615eaa4e5b/serve/mascot/sensei.jsx:17054:462:7"/><g data-om-id="jsx:/https:/019df760-e5b6-7cb0-a4c8-6d615eaa4e5b.claudeusercontent.com/v1/design/projects/019df760-e5b6-7cb0-a4c8-6d615eaa4e5b/serve/mascot/sensei.jsx:18645:511:7"><path d="M 178 298 Q 132 304, 118 360 L 118 416 L 168 416 L 168 360 Q 172 326, 178 300 Z" fill="#4D5662" stroke="#1A1A1A" stroke-width="6" stroke-linejoin="round" data-om-id="jsx:/https:/019df760-e5b6-7cb0-a4c8-6d615eaa4e5b.claudeusercontent.com/v1/design/projects/019df760-e5b6-7cb0-a4c8-6d615eaa4e5b/serve/mascot/sensei.jsx:18721:513:9"/><path d="M 130 380 L 130 416" stroke="#2F353F" stroke-width="2.5" opacity="0.6" data-om-id="jsx:/https:/019df760-e5b6-7cb0-a4c8-6d615eaa4e5b.claudeusercontent.com/v1/design/projects/019df760-e5b6-7cb0-a4c8-6d615eaa4e5b/serve/mascot/sensei.jsx:18979:522:9"/><path d="M 118 416 L 168 416 L 166 410 L 120 410 Z" fill="#FBF8F1" stroke="#1A1A1A" stroke-width="3" data-om-id="jsx:/https:/019df760-e5b6-7cb0-a4c8-6d615eaa4e5b.claudeusercontent.com/v1/design/projects/019df760-e5b6-7cb0-a4c8-6d615eaa4e5b/serve/mascot/sensei.jsx:19119:524:9"/><g transform="translate(143 420) rotate(0)" data-om-id="jsx:/https:/019df760-e5b6-7cb0-a4c8-6d615eaa4e5b.claudeusercontent.com/v1/design/projects/019df760-e5b6-7cb0-a4c8-6d615eaa4e5b/serve/mascot/sensei.jsx:24129:709:5"><g data-om-id="jsx:/https:/019df760-e5b6-7cb0-a4c8-6d615eaa4e5b.claudeusercontent.com/v1/design/projects/019df760-e5b6-7cb0-a4c8-6d615eaa4e5b/serve/mascot/sensei.jsx:24219:711:9"><path d="M -16 -4 q 0 -16 16 -16 q 16 0 16 16 q 0 18 -16 18 q -16 0 -16 -18 Z" fill="#F2D5AC" stroke="#1A1A1A" stroke-width="4.5" stroke-linejoin="round" data-om-id="jsx:/https:/019df760-e5b6-7cb0-a4c8-6d615eaa4e5b.claudeusercontent.com/v1/design/projects/019df760-e5b6-7cb0-a4c8-6d615eaa4e5b/serve/mascot/sensei.jsx:24233:712:11"/><path d="M -10 -6 q 4 -3 8 0" stroke="#1A1A1A" stroke-width="2" fill="none" data-om-id="jsx:/https:/019df760-e5b6-7cb0-a4c8-6d615eaa4e5b.claudeusercontent.com/v1/design/projects/019df760-e5b6-7cb0-a4c8-6d615eaa4e5b/serve/mascot/sensei.jsx:24425:716:11"/><path d="M -2  -8 q 4 -3 8 0" stroke="#1A1A1A" stroke-width="2" fill="none" data-om-id="jsx:/https:/019df760-e5b6-7cb0-a4c8-6d615eaa4e5b.claudeusercontent.com/v1/design/projects/019df760-e5b6-7cb0-a4c8-6d615eaa4e5b/serve/mascot/sensei.jsx:24509:717:11"/></g></g></g><g data-om-id="jsx:/https:/019df760-e5b6-7cb0-a4c8-6d615eaa4e5b.claudeusercontent.com/v1/design/projects/019df760-e5b6-7cb0-a4c8-6d615eaa4e5b/serve/mascot/sensei.jsx:21927:628:7"><path d="M 334 298 Q 380 304, 394 360 L 394 416 L 344 416 L 344 360 Q 340 326, 334 300 Z" fill="#4D5662" stroke="#1A1A1A" stroke-width="6" stroke-linejoin="round" data-om-id="jsx:/https:/019df760-e5b6-7cb0-a4c8-6d615eaa4e5b.claudeusercontent.com/v1/design/projects/019df760-e5b6-7cb0-a4c8-6d615eaa4e5b/serve/mascot/sensei.jsx:21939:629:9"/><path d="M 382 380 L 382 416" stroke="#2F353F" stroke-width="2.5" opacity="0.6" data-om-id="jsx:/https:/019df760-e5b6-7cb0-a4c8-6d615eaa4e5b.claudeusercontent.com/v1/design/projects/019df760-e5b6-7cb0-a4c8-6d615eaa4e5b/serve/mascot/sensei.jsx:22197:638:9"/><path d="M 344 416 L 394 416 L 392 410 L 346 410 Z" fill="#FBF8F1" stroke="#1A1A1A" stroke-width="3" data-om-id="jsx:/https:/019df760-e5b6-7cb0-a4c8-6d615eaa4e5b.claudeusercontent.com/v1/design/projects/019df760-e5b6-7cb0-a4c8-6d615eaa4e5b/serve/mascot/sensei.jsx:22287:639:9"/><g transform="translate(369 420) rotate(0)" data-om-id="jsx:/https:/019df760-e5b6-7cb0-a4c8-6d615eaa4e5b.claudeusercontent.com/v1/design/projects/019df760-e5b6-7cb0-a4c8-6d615eaa4e5b/serve/mascot/sensei.jsx:24129:709:5"><g data-om-id="jsx:/https:/019df760-e5b6-7cb0-a4c8-6d615eaa4e5b.claudeusercontent.com/v1/design/projects/019df760-e5b6-7cb0-a4c8-6d615eaa4e5b/serve/mascot/sensei.jsx:24219:711:9"><path d="M -16 -4 q 0 -16 16 -16 q 16 0 16 16 q 0 18 -16 18 q -16 0 -16 -18 Z" fill="#F2D5AC" stroke="#1A1A1A" stroke-width="4.5" stroke-linejoin="round" data-om-id="jsx:/https:/019df760-e5b6-7cb0-a4c8-6d615eaa4e5b.claudeusercontent.com/v1/design/projects/019df760-e5b6-7cb0-a4c8-6d615eaa4e5b/serve/mascot/sensei.jsx:24233:712:11"/><path d="M -10 -6 q 4 -3 8 0" stroke="#1A1A1A" stroke-width="2" fill="none" data-om-id="jsx:/https:/019df760-e5b6-7cb0-a4c8-6d615eaa4e5b.claudeusercontent.com/v1/design/projects/019df760-e5b6-7cb0-a4c8-6d615eaa4e5b/serve/mascot/sensei.jsx:24425:716:11"/><path d="M -2  -8 q 4 -3 8 0" stroke="#1A1A1A" stroke-width="2" fill="none" data-om-id="jsx:/https:/019df760-e5b6-7cb0-a4c8-6d615eaa4e5b.claudeusercontent.com/v1/design/projects/019df760-e5b6-7cb0-a4c8-6d615eaa4e5b/serve/mascot/sensei.jsx:24509:717:11"/></g></g></g></g><g transform="rotate(0 256 130)" data-om-id="jsx:/https:/019df760-e5b6-7cb0-a4c8-6d615eaa4e5b.claudeusercontent.com/v1/design/projects/019df760-e5b6-7cb0-a4c8-6d615eaa4e5b/serve/mascot/sensei.jsx:3064:79:5"><ellipse cx="256" cy="180" rx="170" ry="14" fill="#6E5430" opacity="0.4" data-om-id="jsx:/https:/019df760-e5b6-7cb0-a4c8-6d615eaa4e5b.claudeusercontent.com/v1/design/projects/019df760-e5b6-7cb0-a4c8-6d615eaa4e5b/serve/mascot/sensei.jsx:3156:81:7"/><path d="M 60 168 Q 256 152 452 168 Q 452 188 256 196 Q 60 188 60 168 Z" fill="#D8B274" stroke="#1A1A1A" stroke-width="6" stroke-linejoin="round" data-om-id="jsx:/https:/019df760-e5b6-7cb0-a4c8-6d615eaa4e5b.claudeusercontent.com/v1/design/projects/019df760-e5b6-7cb0-a4c8-6d615eaa4e5b/serve/mascot/sensei.jsx:3321:84:7"/><path d="M 60 184 Q 256 196 452 184 L 450 192 Q 256 204 62 192 Z" fill="#6E5430" opacity="0.55" data-om-id="jsx:/https:/019df760-e5b6-7cb0-a4c8-6d615eaa4e5b.claudeusercontent.com/v1/design/projects/019df760-e5b6-7cb0-a4c8-6d615eaa4e5b/serve/mascot/sensei.jsx:3583:96:7"/><g stroke="#9C7A47" stroke-width="2" fill="none" stroke-linecap="round" opacity="0.7" data-om-id="jsx:/https:/019df760-e5b6-7cb0-a4c8-6d615eaa4e5b.claudeusercontent.com/v1/design/projects/019df760-e5b6-7cb0-a4c8-6d615eaa4e5b/serve/mascot/sensei.jsx:3757:103:7"><path d="M 256 158 L 90 174" data-om-id="jsx:/https:/019df760-e5b6-7cb0-a4c8-6d615eaa4e5b.claudeusercontent.com/v1/design/projects/019df760-e5b6-7cb0-a4c8-6d615eaa4e5b/serve/mascot/sensei.jsx:3849:104:9"/><path d="M 256 158 L 140 172" data-om-id="jsx:/https:/019df760-e5b6-7cb0-a4c8-6d615eaa4e5b.claudeusercontent.com/v1/design/projects/019df760-e5b6-7cb0-a4c8-6d615eaa4e5b/serve/mascot/sensei.jsx:3889:105:9"/><path d="M 256 158 L 200 168" data-om-id="jsx:/https:/019df760-e5b6-7cb0-a4c8-6d615eaa4e5b.claudeusercontent.com/v1/design/projects/019df760-e5b6-7cb0-a4c8-6d615eaa4e5b/serve/mascot/sensei.jsx:3930:106:9"/><path d="M 256 158 L 256 196" data-om-id="jsx:/https:/019df760-e5b6-7cb0-a4c8-6d615eaa4e5b.claudeusercontent.com/v1/design/projects/019df760-e5b6-7cb0-a4c8-6d615eaa4e5b/serve/mascot/sensei.jsx:3971:107:9"/><path d="M 256 158 L 312 168" data-om-id="jsx:/https:/019df760-e5b6-7cb0-a4c8-6d615eaa4e5b.claudeusercontent.com/v1/design/projects/019df760-e5b6-7cb0-a4c8-6d615eaa4e5b/serve/mascot/sensei.jsx:4012:108:9"/><path d="M 256 158 L 372 172" data-om-id="jsx:/https:/019df760-e5b6-7cb0-a4c8-6d615eaa4e5b.claudeusercontent.com/v1/design/projects/019df760-e5b6-7cb0-a4c8-6d615eaa4e5b/serve/mascot/sensei.jsx:4053:109:9"/><path d="M 256 158 L 422 174" data-om-id="jsx:/https:/019df760-e5b6-7cb0-a4c8-6d615eaa4e5b.claudeusercontent.com/v1/design/projects/019df760-e5b6-7cb0-a4c8-6d615eaa4e5b/serve/mascot/sensei.jsx:4094:110:9"/></g><g stroke="#9C7A47" stroke-width="1.5" fill="none" opacity="0.6" data-om-id="jsx:/https:/019df760-e5b6-7cb0-a4c8-6d615eaa4e5b.claudeusercontent.com/v1/design/projects/019df760-e5b6-7cb0-a4c8-6d615eaa4e5b/serve/mascot/sensei.jsx:4182:114:7"><path d="M 90 174 Q 256 168 422 174" data-om-id="jsx:/https:/019df760-e5b6-7cb0-a4c8-6d615eaa4e5b.claudeusercontent.com/v1/design/projects/019df760-e5b6-7cb0-a4c8-6d615eaa4e5b/serve/mascot/sensei.jsx:4254:115:9"/><path d="M 110 180 Q 256 174 402 180" data-om-id="jsx:/https:/019df760-e5b6-7cb0-a4c8-6d615eaa4e5b.claudeusercontent.com/v1/design/projects/019df760-e5b6-7cb0-a4c8-6d615eaa4e5b/serve/mascot/sensei.jsx:4302:116:9"/></g><ellipse cx="256" cy="166" rx="28" ry="6" fill="#E8C893" opacity="0.75" data-om-id="jsx:/https:/019df760-e5b6-7cb0-a4c8-6d615eaa4e5b.claudeusercontent.com/v1/design/projects/019df760-e5b6-7cb0-a4c8-6d615eaa4e5b/serve/mascot/sensei.jsx:4428:120:7"/><path d="M 96 184 q 4 24 10 40" stroke="#1A1A1A" stroke-width="2.5" fill="none" opacity="0.7" data-om-id="jsx:/https:/019df760-e5b6-7cb0-a4c8-6d615eaa4e5b.claudeusercontent.com/v1/design/projects/019df760-e5b6-7cb0-a4c8-6d615eaa4e5b/serve/mascot/sensei.jsx:4561:123:7"/><path d="M 416 184 q -4 24 -10 40" stroke="#1A1A1A" stroke-width="2.5" fill="none" opacity="0.7" data-om-id="jsx:/https:/019df760-e5b6-7cb0-a4c8-6d615eaa4e5b.claudeusercontent.com/v1/design/projects/019df760-e5b6-7cb0-a4c8-6d615eaa4e5b/serve/mascot/sensei.jsx:4659:124:7"/></g></svg>