<svg id="pose-cheering" data-pose="cheering" xmlns="http://www.w3.org/2000/svg" viewBox="0 0 512 512" width="512" height="512" data-om-id="jsx:/https:/019df760-e5b6-7cb0-a4c8-6d615eaa4e5b.claudeusercontent.com/v1/design/projects/019df760-e5b6-7cb0-a4c8-6d615eaa4e5b/serve/mascot/daruma.jsx:6221:221:5"><g fill="#E8B84B" data-om-id="jsx:/https:/019df760-e5b6-7cb0-a4c8-6d615eaa4e5b.claudeusercontent.com/v1/design/projects/019df760-e5b6-7cb0-a4c8-6d615eaa4e5b/serve/mascot/daruma.jsx:5370:199:3"><path d="M 60 90 l 6 14 l 14 6 l -14 6 l -6 14 l -6 -14 l -14 -6 l 14 -6 Z" data-om-id="jsx:/https:/019df760-e5b6-7cb0-a4c8-6d615eaa4e5b.claudeusercontent.com/v1/design/projects/019df760-e5b6-7cb0-a4c8-6d615eaa4e5b/serve/mascot/daruma.jsx:5390:200:5"/><path d="M 452 110 l 4 10 l 10 4 l -10 4 l -4 10 l -4 -10 l -10 -4 l 10 -4 Z" data-om-id="jsx:/https:/019df760-e5b6-7cb0-a4c8-6d615eaa4e5b.claudeusercontent.com/v1/design/projects/019df760-e5b6-7cb0-a4c8-6d615eaa4e5b/serve/mascot/daruma.jsx:5473:201:5"/><path d="M 430 60 l 3 8 l 8 3 l -8 3 l -3 8 l -3 -8 l -8 -3 l 8 -3 Z" data-om-id="jsx:/https:/019df760-e5b6-7cb0-a4c8-6d615eaa4e5b.claudeusercontent.com/v1/design/projects/019df760-e5b6-7cb0-a4c8-6d615eaa4e5b/serve/mascot/daruma.jsx:5558:202:5"/></g><g fill="#BC002D" stroke="#141414" stroke-width="3" data-om-id="jsx:/https:/019df760-e5b6-7cb0-a4c8-6d615eaa4e5b.claudeusercontent.com/v1/design/projects/019df760-e5b6-7cb0-a4c8-6d615eaa4e5b/serve/mascot/daruma.jsx:4337:156:3"><path d="M 78 220 q -28 -40 -10 -78 q 22 -10 40 14 q 8 22 -2 50 Z" data-om-id="jsx:/https:/019df760-e5b6-7cb0-a4c8-6d615eaa4e5b.claudeusercontent.com/v1/design/projects/019df760-e5b6-7cb0-a4c8-6d615eaa4e5b/serve/mascot/daruma.jsx:4385:157:5"/><path d="M 434 220 q 28 -40 10 -78 q -22 -10 -40 14 q -8 22 2 50 Z" data-om-id="jsx:/https:/019df760-e5b6-7cb0-a4c8-6d615eaa4e5b.claudeusercontent.com/v1/design/projects/019df760-e5b6-7cb0-a4c8-6d615eaa4e5b/serve/mascot/daruma.jsx:4459:158:5"/></g><g transform="rotate(0 256 300)" data-om-id="jsx:/https:/019df760-e5b6-7cb0-a4c8-6d615eaa4e5b.claudeusercontent.com/v1/design/projects/019df760-e5b6-7cb0-a4c8-6d615eaa4e5b/serve/mascot/daruma.jsx:643:17:3"><path d="M 256 60 C 360 60, 432 150, 432 280 C 432 380, 380 452, 256 452 C 132 452, 80 380, 80 280 C 80 150, 152 60, 256 60 Z" fill="#BC002D" data-om-id="jsx:/https:/019df760-e5b6-7cb0-a4c8-6d615eaa4e5b.claudeusercontent.com/v1/design/projects/019df760-e5b6-7cb0-a4c8-6d615eaa4e5b/serve/mascot/daruma.jsx:716:19:5"/><path d="M 120 410 C 160 442, 210 452, 256 452 C 302 452, 352 442, 392 410 L 384 422 C 348 446, 304 454, 256 454 C 208 454, 164 446, 128 422 Z" fill="#E8B84B" data-om-id="jsx:/https:/019df760-e5b6-7cb0-a4c8-6d615eaa4e5b.claudeusercontent.com/v1/design/projects/019df760-e5b6-7cb0-a4c8-6d615eaa4e5b/serve/mascot/daruma.jsx:956:28:5"/><ellipse cx="256" cy="240" rx="138" ry="148" fill="#F7EFE0" data-om-id="jsx:/https:/019df760-e5b6-7cb0-a4c8-6d615eaa4e5b.claudeusercontent.com/v1/design/projects/019df760-e5b6-7cb0-a4c8-6d615eaa4e5b/serve/mascot/daruma.jsx:1249:38:5"/><ellipse cx="256" cy="240" rx="138" ry="148" fill="none" stroke="#141414" stroke-width="3" opacity="0.85" data-om-id="jsx:/https:/019df760-e5b6-7cb0-a4c8-6d615eaa4e5b.claudeusercontent.com/v1/design/projects/019df760-e5b6-7cb0-a4c8-6d615eaa4e5b/serve/mascot/daruma.jsx:1383:40:5"/></g><g fill="#141414" data-om-id="jsx:/https:/019df760-e5b6-7cb0-a4c8-6d615eaa4e5b.claudeusercontent.com/v1/design/projects/019df760-e5b6-7cb0-a4c8-6d615eaa4e5b/serve/mascot/daruma.jsx:1977:54:5"><path d="M 174 168 q 30 -22 60 4 l -8 6 q -24 -22 -46 -6 Z" data-om-id="jsx:/https:/019df760-e5b6-7cb0-a4c8-6d615eaa4e5b.claudeusercontent.com/v1/design/projects/019df760-e5b6-7cb0-a4c8-6d615eaa4e5b/serve/mascot/daruma.jsx:1998:55:7"/><g transform="translate(512 0) scale(-1 1)" data-om-id="jsx:/https:/019df760-e5b6-7cb0-a4c8-6d615eaa4e5b.claudeusercontent.com/v1/design/projects/019df760-e5b6-7cb0-a4c8-6d615eaa4e5b/serve/mascot/daruma.jsx:2030:56:7"><path d="M 174 168 q 30 -22 60 4 l -8 6 q -24 -22 -46 -6 Z" data-om-id="jsx:/https:/019df760-e5b6-7cb0-a4c8-6d615eaa4e5b.claudeusercontent.com/v1/design/projects/019df760-e5b6-7cb0-a4c8-6d615eaa4e5b/serve/mascot/daruma.jsx:2083:57:9"/></g></g><g data-om-id="jsx:/https:/019df760-e5b6-7cb0-a4c8-6d615eaa4e5b.claudeusercontent.com/v1/design/projects/019df760-e5b6-7cb0-a4c8-6d615eaa4e5b/serve/mascot/daruma.jsx:2629:85:5"><ellipse cx="210" cy="232" rx="20" ry="22" fill="#141414" data-om-id="jsx:/https:/019df760-e5b6-7cb0-a4c8-6d615eaa4e5b.claudeusercontent.com/v1/design/projects/019df760-e5b6-7cb0-a4c8-6d615eaa4e5b/serve/mascot/daruma.jsx:2639:86:7"/><circle cx="216" cy="224" r="6" fill="#F7EFE0" data-om-id="jsx:/https:/019df760-e5b6-7cb0-a4c8-6d615eaa4e5b.claudeusercontent.com/v1/design/projects/019df760-e5b6-7cb0-a4c8-6d615eaa4e5b/serve/mascot/daruma.jsx:2700:87:7"/><circle cx="203" cy="240" r="3" fill="#F7EFE0" opacity="0.7" data-om-id="jsx:/https:/019df760-e5b6-7cb0-a4c8-6d615eaa4e5b.claudeusercontent.com/v1/design/projects/019df760-e5b6-7cb0-a4c8-6d615eaa4e5b/serve/mascot/daruma.jsx:2756:88:7"/></g><g data-om-id="jsx:/https:/019df760-e5b6-7cb0-a4c8-6d615eaa4e5b.claudeusercontent.com/v1/design/projects/019df760-e5b6-7cb0-a4c8-6d615eaa4e5b/serve/mascot/daruma.jsx:2629:85:5"><ellipse cx="302" cy="232" rx="20" ry="22" fill="#141414" data-om-id="jsx:/https:/019df760-e5b6-7cb0-a4c8-6d615eaa4e5b.claudeusercontent.com/v1/design/projects/019df760-e5b6-7cb0-a4c8-6d615eaa4e5b/serve/mascot/daruma.jsx:2639:86:7"/><circle cx="308" cy="224" r="6" fill="#F7EFE0" data-om-id="jsx:/https:/019df760-e5b6-7cb0-a4c8-6d615eaa4e5b.claudeusercontent.com/v1/design/projects/019df760-e5b6-7cb0-a4c8-6d615eaa4e5b/serve/mascot/daruma.jsx:2700:87:7"/><circle cx="295" cy="240" r="3" fill="#F7EFE0" opacity="0.7" data-om-id="jsx:/https:/019df760-e5b6-7cb0-a4c8-6d615eaa4e5b.claudeusercontent.com/v1/design/projects/019df760-e5b6-7cb0-a4c8-6d615eaa4e5b/serve/mascot/daruma.jsx:2756:88:7"/></g><g opacity="0.9" data-om-id="jsx:/https:/019df760-e5b6-7cb0-a4c8-6d615eaa4e5b.claudeusercontent.com/v1/design/projects/019df760-e5b6-7cb0-a4c8-6d615eaa4e5b/serve/mascot/daruma.jsx:4019:147:3"><ellipse cx="160" cy="278" rx="18" ry="10" fill="#F4A6A0" data-om-id="jsx:/https:/019df760-e5b6-7cb0-a4c8-6d615eaa4e5b.claudeusercontent.com/v1/design/projects/019df760-e5b6-7cb0-a4c8-6d615eaa4e5b/serve/mascot/daruma.jsx:4045:148:5"/><ellipse cx="352" cy="278" rx="18" ry="10" fill="#F4A6A0" data-om-id="jsx:/https:/019df760-e5b6-7cb0-a4c8-6d615eaa4e5b.claudeusercontent.com/v1/design/projects/019df760-e5b6-7cb0-a4c8-6d615eaa4e5b/serve/mascot/daruma.jsx:4107:149:5"/></g><g data-om-id="jsx:/https:/019df760-e5b6-7cb0-a4c8-6d615eaa4e5b.claudeusercontent.com/v1/design/projects/019df760-e5b6-7cb0-a4c8-6d615eaa4e5b/serve/mascot/daruma.jsx:3428:121:9"><ellipse cx="256" cy="304" rx="28" ry="26" fill="#141414" data-om-id="jsx:/https:/019df760-e5b6-7cb0-a4c8-6d615eaa4e5b.claudeusercontent.com/v1/design/projects/019df760-e5b6-7cb0-a4c8-6d615eaa4e5b/serve/mascot/daruma.jsx:3442:122:11"/><ellipse cx="256" cy="312" rx="18" ry="14" fill="#F4A6A0" data-om-id="jsx:/https:/019df760-e5b6-7cb0-a4c8-6d615eaa4e5b.claudeusercontent.com/v1/design/projects/019df760-e5b6-7cb0-a4c8-6d615eaa4e5b/serve/mascot/daruma.jsx:3509:123:11"/></g><g opacity="0.95" data-om-id="jsx:/https:/019df760-e5b6-7cb0-a4c8-6d615eaa4e5b.claudeusercontent.com/v1/design/projects/019df760-e5b6-7cb0-a4c8-6d615eaa4e5b/serve/mascot/daruma.jsx:5809:209:3"><circle cx="256" cy="408" r="22" fill="#F7EFE0" stroke="#141414" stroke-width="2" data-om-id="jsx:/https:/019df760-e5b6-7cb0-a4c8-6d615eaa4e5b.claudeusercontent.com/v1/design/projects/019df760-e5b6-7cb0-a4c8-6d615eaa4e5b/serve/mascot/daruma.jsx:5832:210:5"/><circle cx="256" cy="408" r="10" fill="#BC002D" data-om-id="jsx:/https:/019df760-e5b6-7cb0-a4c8-6d615eaa4e5b.claudeusercontent.com/v1/design/projects/019df760-e5b6-7cb0-a4c8-6d615eaa4e5b/serve/mascot/daruma.jsx:5987:212:5"/></g></svg>